<svg width="1920" height="1080" viewBox="0 0 1920 1080" fill="none" xmlns="http://www.w3.org/2000/svg">
<rect width="1920" height="1080" fill="#48A0DC"/>
<path d="M862.734 914.496C860.293 936.957 852.236 954.145 838.564 966.059C824.99 977.973 806.875 983.93 784.219 983.93C768.398 983.93 754.385 979.975 742.178 972.064C730.068 964.154 720.693 952.973 714.053 938.52C707.412 923.969 704.043 907.367 703.945 888.715V861.029C703.945 842.084 707.266 825.287 713.906 810.639C720.547 795.99 730.068 784.711 742.471 776.801C754.971 768.793 769.326 764.789 785.537 764.789C808.389 764.789 826.406 770.99 839.59 783.393C852.871 795.697 860.586 812.738 862.734 834.516H844.57C840.078 798.285 820.4 780.17 785.537 780.17C766.201 780.17 750.771 787.396 739.248 801.85C727.822 816.303 722.109 836.273 722.109 861.762V887.836C722.109 912.445 727.676 932.074 738.809 946.723C750.039 961.371 765.176 968.695 784.219 968.695C803.066 968.695 817.275 964.203 826.846 955.219C836.416 946.137 842.324 932.562 844.57 914.496H862.734ZM1027.24 928.559C1027.24 916.742 1023.09 907.416 1014.79 900.58C1006.48 893.646 991.299 887.104 969.229 880.951C947.158 874.701 931.045 867.914 920.889 860.59C906.436 850.238 899.209 836.664 899.209 819.867C899.209 803.559 905.898 790.326 919.277 780.17C932.754 769.916 949.941 764.789 970.84 764.789C985 764.789 997.646 767.523 1008.78 772.992C1020.01 778.461 1028.7 786.078 1034.85 795.844C1041.01 805.609 1044.08 816.498 1044.08 828.51H1025.92C1025.92 813.959 1020.94 802.289 1010.98 793.5C1001.02 784.613 987.637 780.17 970.84 780.17C954.531 780.17 941.543 783.832 931.875 791.156C922.207 798.383 917.373 807.855 917.373 819.574C917.373 830.414 921.719 839.252 930.41 846.088C939.102 852.924 953.018 858.979 972.158 864.252C991.299 869.428 1005.8 874.848 1015.66 880.512C1025.53 886.078 1032.95 892.768 1037.93 900.58C1042.91 908.393 1045.4 917.621 1045.4 928.266C1045.4 945.062 1038.66 958.539 1025.19 968.695C1011.81 978.852 994.131 983.93 972.158 983.93C957.119 983.93 943.301 981.244 930.703 975.873C918.203 970.502 908.682 962.982 902.139 953.314C895.693 943.646 892.471 932.562 892.471 920.062H910.488C910.488 935.102 916.104 946.967 927.334 955.658C938.564 964.35 953.506 968.695 972.158 968.695C988.76 968.695 1002.09 965.033 1012.15 957.709C1022.21 950.385 1027.24 940.668 1027.24 928.559ZM1205.07 928.559C1205.07 916.742 1200.92 907.416 1192.62 900.58C1184.32 893.646 1169.13 887.104 1147.06 880.951C1124.99 874.701 1108.88 867.914 1098.72 860.59C1084.27 850.238 1077.04 836.664 1077.04 819.867C1077.04 803.559 1083.73 790.326 1097.11 780.17C1110.59 769.916 1127.77 764.789 1148.67 764.789C1162.83 764.789 1175.48 767.523 1186.61 772.992C1197.84 778.461 1206.53 786.078 1212.69 795.844C1218.84 805.609 1221.91 816.498 1221.91 828.51H1203.75C1203.75 813.959 1198.77 802.289 1188.81 793.5C1178.85 784.613 1165.47 780.17 1148.67 780.17C1132.36 780.17 1119.38 783.832 1109.71 791.156C1100.04 798.383 1095.21 807.855 1095.21 819.574C1095.21 830.414 1099.55 839.252 1108.24 846.088C1116.93 852.924 1130.85 858.979 1149.99 864.252C1169.13 869.428 1183.63 874.848 1193.5 880.512C1203.36 886.078 1210.78 892.768 1215.76 900.58C1220.74 908.393 1223.23 917.621 1223.23 928.266C1223.23 945.062 1216.49 958.539 1203.02 968.695C1189.64 978.852 1171.96 983.93 1149.99 983.93C1134.95 983.93 1121.13 981.244 1108.54 975.873C1096.04 970.502 1086.51 962.982 1079.97 953.314C1073.53 943.646 1070.3 932.562 1070.3 920.062H1088.32C1088.32 935.102 1093.94 946.967 1105.17 955.658C1116.4 964.35 1131.34 968.695 1149.99 968.695C1166.59 968.695 1179.92 965.033 1189.98 957.709C1200.04 950.385 1205.07 940.668 1205.07 928.559Z" fill="white"/>
<path d="M960 696C1140.04 696 1286 550.045 1286 370C1286 189.955 1140.04 44 960 44C779.955 44 634 189.955 634 370C634 550.045 779.955 696 960 696Z" fill="#48A0DC"/>
<path d="M1116.16 253.903L1123 186.625H951.32H776.625L784.969 253.903H951.32H960.672L951.32 257.785L791.051 324.238L796.368 390.018L951.32 390.507L1034.38 390.772L1029.06 478.477L951.32 500.257V500.186L950.689 500.369L875.617 481.502L871.063 427.06H870.808H801.167H800.932L810.04 532.165L951.32 573.76V573.679L951.585 573.76L1092.11 532.919L1110.35 324.238H951.32H950.933L951.32 324.065L1116.16 253.903Z" fill="white"/>
</svg>
