<svg width="1920" height="1080" viewBox="0 0 1920 1080" fill="none" xmlns="http://www.w3.org/2000/svg">
<rect width="1920" height="1080" fill="#25282B"/>
<path d="M738.662 955.658C732.412 964.545 722.598 971.479 709.219 976.459C695.938 981.439 681.045 983.93 664.541 983.93C647.842 983.93 632.998 979.926 620.01 971.918C607.021 963.91 596.963 952.582 589.834 937.934C582.705 923.285 579.092 906.488 578.994 887.543V860.59C578.994 831 586.465 807.66 601.406 790.57C616.348 773.383 636.416 764.789 661.611 764.789C683.584 764.789 701.26 770.404 714.639 781.635C728.018 792.768 735.977 808.148 738.516 827.777H720.498C717.861 812.152 711.465 800.336 701.309 792.328C691.25 784.223 678.066 780.17 661.758 780.17C641.836 780.17 626.064 787.25 614.443 801.41C602.822 815.57 597.012 835.541 597.012 861.322V886.518C597.012 902.729 599.746 917.084 605.215 929.584C610.781 941.986 618.691 951.605 628.945 958.441C639.297 965.277 651.162 968.695 664.541 968.695C680.068 968.695 693.398 966.254 704.531 961.371C711.758 958.148 717.129 954.389 720.645 950.092V895.014H663.369V879.779H738.662V955.658ZM776.016 899.408C776.016 884.174 778.945 870.453 784.805 858.246C790.762 846.039 799.111 836.566 809.854 829.828C820.693 822.992 832.949 819.574 846.621 819.574C867.715 819.574 884.805 826.996 897.891 841.84C910.977 856.586 917.52 876.166 917.52 900.58V904.242C917.52 919.574 914.541 933.393 908.584 945.697C902.725 957.904 894.424 967.328 883.682 973.969C872.939 980.609 860.684 983.93 846.914 983.93C825.918 983.93 808.828 976.557 795.645 961.811C782.559 946.967 776.016 927.338 776.016 902.924V899.408ZM793.594 904.242C793.594 923.188 798.477 938.764 808.242 950.971C818.105 963.08 830.996 969.135 846.914 969.135C862.734 969.135 875.527 963.08 885.293 950.971C895.156 938.764 900.088 922.699 900.088 902.777V899.408C900.088 887.299 897.842 876.215 893.35 866.156C888.857 856.098 882.559 848.334 874.453 842.865C866.348 837.299 857.07 834.516 846.621 834.516C830.996 834.516 818.252 840.668 808.389 852.973C798.525 865.18 793.594 881.195 793.594 901.02V904.242ZM946.816 900.287C946.816 875.678 952.285 856.098 963.223 841.547C974.258 826.898 989.199 819.574 1008.05 819.574C1029.43 819.574 1045.74 828.021 1056.97 844.916V756H1074.4V981H1058L1057.27 959.906C1046.04 975.922 1029.53 983.93 1007.75 983.93C989.492 983.93 974.746 976.605 963.516 961.957C952.383 947.211 946.816 927.338 946.816 902.338V900.287ZM964.541 903.363C964.541 923.578 968.594 939.545 976.699 951.264C984.805 962.885 996.23 968.695 1010.98 968.695C1032.56 968.695 1047.89 959.174 1056.97 940.131V865.717C1047.89 845.111 1032.66 834.809 1011.27 834.809C996.523 834.809 985.049 840.619 976.846 852.24C968.643 863.764 964.541 880.805 964.541 903.363ZM1110.88 899.408C1110.88 884.174 1113.81 870.453 1119.67 858.246C1125.62 846.039 1133.97 836.566 1144.72 829.828C1155.56 822.992 1167.81 819.574 1181.48 819.574C1202.58 819.574 1219.67 826.996 1232.75 841.84C1245.84 856.586 1252.38 876.166 1252.38 900.58V904.242C1252.38 919.574 1249.4 933.393 1243.45 945.697C1237.59 957.904 1229.29 967.328 1218.54 973.969C1207.8 980.609 1195.55 983.93 1181.78 983.93C1160.78 983.93 1143.69 976.557 1130.51 961.811C1117.42 946.967 1110.88 927.338 1110.88 902.924V899.408ZM1128.46 904.242C1128.46 923.188 1133.34 938.764 1143.11 950.971C1152.97 963.08 1165.86 969.135 1181.78 969.135C1197.6 969.135 1210.39 963.08 1220.16 950.971C1230.02 938.764 1234.95 922.699 1234.95 902.777V899.408C1234.95 887.299 1232.71 876.215 1228.21 866.156C1223.72 856.098 1217.42 848.334 1209.32 842.865C1201.21 837.299 1191.93 834.516 1181.48 834.516C1165.86 834.516 1153.12 840.668 1143.25 852.973C1133.39 865.18 1128.46 881.195 1128.46 901.02V904.242ZM1315.96 781.928V822.504H1348.77V836.859H1315.96V942.475C1315.96 951.264 1317.52 957.807 1320.64 962.104C1323.87 966.4 1329.19 968.549 1336.61 968.549C1339.54 968.549 1344.28 968.061 1350.82 967.084L1351.55 981.439C1346.96 983.1 1340.71 983.93 1332.8 983.93C1320.79 983.93 1312.05 980.463 1306.58 973.529C1301.11 966.498 1298.38 956.195 1298.38 942.621V836.859H1269.23V822.504H1298.38V781.928H1315.96Z" fill="white"/>
<path d="M1184.3 483.76C1184.3 483.76 1183.56 479.188 1183.12 479.229L1100.17 487.233C1093.56 487.87 1088.44 493.134 1087.98 499.749L1085.7 532.413L1021.52 536.991L1017.15 507.388C1016.18 500.803 1010.43 495.84 1003.78 495.84H916.223C909.57 495.84 903.82 500.803 902.848 507.388L898.48 536.991L834.303 532.413L832.024 499.749C831.561 493.132 826.435 487.868 819.834 487.231L736.839 479.229C736.41 479.188 736.096 483.764 735.667 483.764L735.555 501.716L805.844 513.051L808.146 546.006C808.611 552.678 813.994 558.072 820.671 558.552L909.056 564.857C909.391 564.879 909.721 564.893 910.051 564.893C916.693 564.893 922.434 559.927 923.406 553.343L927.897 522.882H992.104L996.596 553.343C997.565 559.925 1003.31 564.891 1009.96 564.891C1010.29 564.891 1010.62 564.879 1010.93 564.857L1099.33 558.552C1106 558.072 1111.39 552.678 1111.86 546.006L1114.16 513.051L1184.41 501.665L1184.3 483.76Z" fill="white"/>
<path d="M735.666 348.397V457.332V471.168V483.76C735.914 483.762 736.161 483.771 736.407 483.794L819.393 491.795C823.74 492.215 827.147 495.714 827.449 500.07L830.008 536.702L902.397 541.868L907.384 508.057C908.031 503.674 911.791 500.425 916.225 500.425H1003.78C1008.21 500.425 1011.97 503.674 1012.62 508.057L1017.6 541.868L1089.99 536.702L1092.55 500.07C1092.86 495.714 1096.26 492.217 1100.61 491.795L1183.56 483.794C1183.81 483.771 1184.05 483.762 1184.3 483.76V472.959L1184.33 472.947V348.397H1184.64C1195.63 334.366 1205.81 319.58 1215.56 303.806C1202.61 281.751 1186.73 262.041 1169.76 243.779C1154.03 251.701 1138.74 260.674 1124.3 270.223C1117.08 263.042 1108.94 257.169 1100.95 251.029C1093.1 244.722 1084.25 240.097 1075.86 234.709C1078.35 216.1 1079.59 197.779 1080.09 178.658C1058.43 167.758 1035.34 160.532 1011.98 155.341C1002.65 171.016 994.121 187.991 986.693 204.586C977.884 203.114 969.034 202.568 960.173 202.463V202.449C960.111 202.449 960.054 202.463 960.001 202.463C959.946 202.463 959.889 202.449 959.834 202.449V202.463C950.957 202.568 942.114 203.114 933.303 204.586C925.879 187.991 917.355 171.016 908.014 155.341C884.666 160.532 861.569 167.758 839.915 178.658C840.41 197.779 841.646 216.1 844.152 234.709C835.742 240.097 826.904 244.722 819.049 251.029C811.068 257.169 802.918 263.042 795.691 270.223C781.254 260.674 765.973 251.701 750.232 243.779C733.263 262.041 717.398 281.751 704.438 303.806C714.188 319.58 724.368 334.366 735.359 348.397H735.666Z" fill="#478CBF"/>
<path d="M1109.85 508.859L1107.28 545.687C1106.97 550.125 1103.44 553.658 1099 553.977L1010.61 560.284C1010.39 560.3 1010.18 560.307 1009.96 560.307C1005.57 560.307 1001.78 557.084 1001.13 552.673L996.064 518.296H923.938L918.869 552.673C918.188 557.299 914.052 560.626 909.393 560.284L820.998 553.977C816.56 553.658 813.029 550.125 812.72 545.687L810.149 508.859L735.529 501.665C735.564 509.685 735.667 518.47 735.667 520.22C735.667 599.028 835.64 636.908 959.848 637.344H960H960.153C1084.36 636.908 1184.3 599.028 1184.3 520.22C1184.3 518.438 1184.41 509.689 1184.44 501.665L1109.85 508.859Z" fill="#478CBF"/>
<path d="M892.372 403.345C892.372 430.977 869.984 453.36 842.362 453.36C814.753 453.36 792.358 430.977 792.358 403.345C792.358 375.732 814.753 353.36 842.362 353.36C869.984 353.36 892.372 375.732 892.372 403.345Z" fill="white"/>
<path d="M880.339 406.311C880.339 424.639 865.485 439.494 847.143 439.494C828.811 439.494 813.947 424.639 813.947 406.311C813.947 387.984 828.811 373.116 847.143 373.116C865.485 373.116 880.339 387.984 880.339 406.311Z" fill="#414042"/>
<path d="M959.996 457.91C951.105 457.91 943.899 451.358 943.899 443.281V397.241C943.899 389.171 951.105 382.611 959.996 382.611C968.887 382.611 976.109 389.171 976.109 397.241V443.281C976.109 451.358 968.887 457.91 959.996 457.91Z" fill="white"/>
<path d="M1027.63 403.345C1027.63 430.977 1050.02 453.36 1077.64 453.36C1105.25 453.36 1127.64 430.977 1127.64 403.345C1127.64 375.732 1105.25 353.36 1077.64 353.36C1050.02 353.36 1027.63 375.732 1027.63 403.345Z" fill="white"/>
<path d="M1039.67 406.311C1039.67 424.639 1054.51 439.494 1072.84 439.494C1091.19 439.494 1106.04 424.639 1106.04 406.311C1106.04 387.984 1091.19 373.116 1072.84 373.116C1054.51 373.116 1039.67 387.984 1039.67 406.311Z" fill="#414042"/>
</svg>
