<svg width="1920" height="1080" viewBox="0 0 1920 1080" fill="none" xmlns="http://www.w3.org/2000/svg">
<rect width="1920" height="1080" fill="#FF5353"/>
<path d="M742.471 981H724.307V878.754H602.432V981H584.414V767.719H602.432V863.52H724.307V767.719H742.471V981ZM937.148 783.1H864.053V981H846.035V783.1H773.086V767.719H937.148V783.1ZM995.596 767.719L1074.26 955.951L1153.21 767.719H1177.24V981H1159.22V888.129L1160.68 792.914L1081.29 981H1067.37L988.271 793.646L989.736 887.543V981H971.719V767.719H995.596ZM1249.45 965.766H1354.78V981H1231.29V767.719H1249.45V965.766Z" fill="white"/>
<path d="M960.5 677C1135.85 677 1278 534.85 1278 359.5C1278 184.15 1135.85 42 960.5 42C785.15 42 643 184.15 643 359.5C643 534.85 785.15 677 960.5 677Z" fill="#FF5353"/>
<path d="M860.934 240.815H788.108L794.497 320.567H794.388L800.391 379.909H1031.42L1023.49 474.376L960.421 494.279V493.664L876.551 471.488L871.412 419.478H801.363L810.809 515.025V518.964L960.421 558.513L1085.86 518.964H1087.42L1087.46 518.448L1087.71 518.379V515.462L1099.08 379.899H1099.35L1105.35 320.557H867.324L860.934 240.815ZM781.202 181.531L788.108 240.815H1119.5L1125.79 181.531H781.202Z" fill="white"/>
</svg>
