<svg width="1920" height="1080" viewBox="0 0 1920 1080" fill="none" xmlns="http://www.w3.org/2000/svg">
<rect width="1920" height="1080" fill="#F7DF1E"/>
<path d="M385.928 767.719H404.092V917.572C404.092 937.787 398.232 953.9 386.514 965.912C374.893 977.924 359.268 983.93 339.639 983.93C318.936 983.93 303.018 978.51 291.885 967.67C280.752 956.83 275.186 941.693 275.186 922.26H293.203C293.203 937.689 297.256 949.311 305.361 957.123C313.467 964.838 324.893 968.695 339.639 968.695C353.213 968.695 364.248 964.203 372.744 955.219C381.338 946.234 385.732 934.027 385.928 918.598V767.719ZM552.92 981C551.162 976.02 550.039 968.646 549.551 958.881C543.398 966.889 535.537 973.09 525.967 977.484C516.494 981.781 506.436 983.93 495.791 983.93C480.557 983.93 468.203 979.682 458.73 971.186C449.355 962.689 444.668 951.947 444.668 938.959C444.668 923.529 451.064 911.322 463.857 902.338C476.748 893.354 494.668 888.861 517.617 888.861H549.404V870.844C549.404 859.516 545.889 850.629 538.857 844.184C531.924 837.641 521.768 834.369 508.389 834.369C496.182 834.369 486.074 837.494 478.066 843.744C470.059 849.994 466.055 857.514 466.055 866.303L448.477 866.156C448.477 853.559 454.336 842.67 466.055 833.49C477.773 824.213 492.178 819.574 509.268 819.574C526.943 819.574 540.859 824.018 551.016 832.904C561.27 841.693 566.543 853.998 566.836 869.818V944.818C566.836 960.15 568.447 971.625 571.67 979.242V981H552.92ZM497.842 968.402C509.561 968.402 520.01 965.57 529.189 959.906C538.467 954.242 545.205 946.674 549.404 937.201V902.338H518.057C500.576 902.533 486.904 905.756 477.041 912.006C467.178 918.158 462.246 926.654 462.246 937.494C462.246 946.381 465.518 953.754 472.061 959.613C478.701 965.473 487.295 968.402 497.842 968.402ZM660.732 956.83L708.926 822.504H726.943L667.764 981H653.555L594.082 822.504H612.1L660.732 956.83ZM853.506 981C851.748 976.02 850.625 968.646 850.137 958.881C843.984 966.889 836.123 973.09 826.553 977.484C817.08 981.781 807.021 983.93 796.377 983.93C781.143 983.93 768.789 979.682 759.316 971.186C749.941 962.689 745.254 951.947 745.254 938.959C745.254 923.529 751.65 911.322 764.443 902.338C777.334 893.354 795.254 888.861 818.203 888.861H849.99V870.844C849.99 859.516 846.475 850.629 839.443 844.184C832.51 837.641 822.354 834.369 808.975 834.369C796.768 834.369 786.66 837.494 778.652 843.744C770.645 849.994 766.641 857.514 766.641 866.303L749.062 866.156C749.062 853.559 754.922 842.67 766.641 833.49C778.359 824.213 792.764 819.574 809.854 819.574C827.529 819.574 841.445 824.018 851.602 832.904C861.855 841.693 867.129 853.998 867.422 869.818V944.818C867.422 960.15 869.033 971.625 872.256 979.242V981H853.506ZM798.428 968.402C810.146 968.402 820.596 965.57 829.775 959.906C839.053 954.242 845.791 946.674 849.99 937.201V902.338H818.643C801.162 902.533 787.49 905.756 777.627 912.006C767.764 918.158 762.832 926.654 762.832 937.494C762.832 946.381 766.104 953.754 772.646 959.613C779.287 965.473 787.881 968.402 798.428 968.402ZM1039.1 928.559C1039.1 916.742 1034.95 907.416 1026.65 900.58C1018.35 893.646 1003.16 887.104 981.094 880.951C959.023 874.701 942.91 867.914 932.754 860.59C918.301 850.238 911.074 836.664 911.074 819.867C911.074 803.559 917.764 790.326 931.143 780.17C944.619 769.916 961.807 764.789 982.705 764.789C996.865 764.789 1009.51 767.523 1020.64 772.992C1031.88 778.461 1040.57 786.078 1046.72 795.844C1052.87 805.609 1055.95 816.498 1055.95 828.51H1037.78C1037.78 813.959 1032.8 802.289 1022.84 793.5C1012.88 784.613 999.502 780.17 982.705 780.17C966.396 780.17 953.408 783.832 943.74 791.156C934.072 798.383 929.238 807.855 929.238 819.574C929.238 830.414 933.584 839.252 942.275 846.088C950.967 852.924 964.883 858.979 984.023 864.252C1003.16 869.428 1017.67 874.848 1027.53 880.512C1037.39 886.078 1044.81 892.768 1049.79 900.58C1054.78 908.393 1057.27 917.621 1057.27 928.266C1057.27 945.062 1050.53 958.539 1037.05 968.695C1023.67 978.852 1006 983.93 984.023 983.93C968.984 983.93 955.166 981.244 942.568 975.873C930.068 970.502 920.547 962.982 914.004 953.314C907.559 943.646 904.336 932.562 904.336 920.062H922.354C922.354 935.102 927.969 946.967 939.199 955.658C950.43 964.35 965.371 968.695 984.023 968.695C1000.62 968.695 1013.96 965.033 1024.01 957.709C1034.07 950.385 1039.1 940.668 1039.1 928.559ZM1150.72 969.135C1162.93 969.135 1173.13 965.717 1181.34 958.881C1189.64 951.947 1194.13 943.012 1194.81 932.074H1211.66C1211.17 941.742 1208.14 950.58 1202.58 958.588C1197.01 966.498 1189.59 972.699 1180.31 977.191C1171.13 981.684 1161.27 983.93 1150.72 983.93C1129.92 983.93 1113.42 976.703 1101.21 962.25C1089.1 947.797 1083.05 928.363 1083.05 903.949V898.676C1083.05 883.051 1085.78 869.232 1091.25 857.221C1096.72 845.209 1104.53 835.932 1114.69 829.389C1124.94 822.846 1136.9 819.574 1150.58 819.574C1167.96 819.574 1182.27 824.75 1193.5 835.102C1204.82 845.453 1210.88 859.076 1211.66 875.971H1194.81C1194.03 863.568 1189.54 853.559 1181.34 845.941C1173.23 838.324 1162.98 834.516 1150.58 834.516C1134.76 834.516 1122.45 840.229 1113.66 851.654C1104.97 863.08 1100.62 879.096 1100.62 899.701V904.828C1100.62 925.043 1104.97 940.814 1113.66 952.143C1122.45 963.471 1134.8 969.135 1150.72 969.135ZM1320.06 837.445C1316.35 836.762 1312.39 836.42 1308.19 836.42C1297.26 836.42 1287.98 839.496 1280.36 845.648C1272.84 851.703 1267.47 860.541 1264.25 872.162V981H1246.82V822.504H1263.96L1264.25 847.699C1273.53 828.949 1288.42 819.574 1308.93 819.574C1313.81 819.574 1317.67 820.209 1320.5 821.479L1320.06 837.445ZM1367.52 981H1349.94V822.504H1367.52V981ZM1346.87 776.654C1346.87 773.334 1347.94 770.551 1350.09 768.305C1352.24 765.961 1355.17 764.789 1358.88 764.789C1362.59 764.789 1365.52 765.961 1367.67 768.305C1369.91 770.551 1371.04 773.334 1371.04 776.654C1371.04 779.975 1369.91 782.758 1367.67 785.004C1365.52 787.25 1362.59 788.373 1358.88 788.373C1355.17 788.373 1352.24 787.25 1350.09 785.004C1347.94 782.758 1346.87 779.975 1346.87 776.654ZM1542.71 903.363C1542.71 928.07 1537.25 947.699 1526.31 962.25C1515.37 976.703 1500.72 983.93 1482.36 983.93C1460.68 983.93 1444.08 976.312 1432.56 961.078V1041.94H1415.13V822.504H1431.39L1432.27 844.916C1443.69 828.021 1460.24 819.574 1481.92 819.574C1500.87 819.574 1515.71 826.752 1526.46 841.107C1537.29 855.463 1542.71 875.385 1542.71 900.873V903.363ZM1525.14 900.287C1525.14 880.072 1520.99 864.105 1512.69 852.387C1504.38 840.668 1492.81 834.809 1477.97 834.809C1467.23 834.809 1458 837.396 1450.28 842.572C1442.57 847.748 1436.66 855.268 1432.56 865.131V941.156C1436.76 950.238 1442.76 957.172 1450.58 961.957C1458.39 966.742 1467.62 969.135 1478.26 969.135C1493.01 969.135 1504.48 963.275 1512.69 951.557C1520.99 939.74 1525.14 922.65 1525.14 900.287ZM1608.93 781.928V822.504H1641.74V836.859H1608.93V942.475C1608.93 951.264 1610.49 957.807 1613.61 962.104C1616.84 966.4 1622.16 968.549 1629.58 968.549C1632.51 968.549 1637.25 968.061 1643.79 967.084L1644.52 981.439C1639.93 983.1 1633.68 983.93 1625.77 983.93C1613.76 983.93 1605.02 980.463 1599.55 973.529C1594.08 966.498 1591.35 956.195 1591.35 942.621V836.859H1562.2V822.504H1591.35V781.928H1608.93Z" fill="black"/>
<path d="M816.155 181.644H900.367V417.663C900.367 524.038 849.398 561.16 767.953 561.16C748.009 561.16 722.524 557.836 705.901 552.296L715.32 484.15C726.955 488.028 741.914 490.798 758.534 490.798C793.992 490.798 816.155 474.73 816.155 417.111V181.644Z" fill="black"/>
<path d="M973.484 468.634C995.645 480.269 1031.1 491.904 1067.12 491.904C1105.9 491.904 1126.4 475.838 1126.4 450.906C1126.4 428.191 1108.67 414.341 1063.79 398.827C1001.74 376.665 960.742 342.315 960.742 287.467C960.742 223.752 1014.48 175.55 1102.02 175.55C1144.68 175.55 1175.15 183.863 1197.32 194.388L1178.48 261.98C1164.07 254.779 1136.92 244.251 1100.91 244.251C1064.35 244.251 1046.62 261.426 1046.62 280.264C1046.62 304.088 1067.12 314.613 1115.87 333.452C1181.8 357.83 1212.27 392.18 1212.27 445.367C1212.27 507.973 1164.63 561.161 1062.13 561.161C1019.47 561.161 977.36 549.525 956.31 537.891L973.484 468.634Z" fill="black"/>
</svg>
