<svg width="200" height="200" viewBox="0 0 200 200" fill="none" xmlns="http://www.w3.org/2000/svg">
<g clip-path="url(#clip0)">
<path d="M81.1562 180.872C60.2214 176.746 36.0811 147.872 25.0509 115.882C13.9443 83.9634 15.9478 48.9289 33.3862 36.8708C50.9124 24.908 83.8619 35.7558 116.417 49.0859C148.972 62.4161 181.221 78.3237 184.718 94.5075C188.127 110.596 162.782 126.961 141.334 145.549C119.809 164.209 102.091 184.997 81.1562 180.872Z" fill="#00CECB"/>
<path d="M81.5075 164.557C63.3389 159.952 41.1989 133.758 30.1557 105.514C19.0504 77.3267 19.0419 47.0882 33.4119 37.5068C47.8622 28.0122 76.6727 39.0306 105.267 52.179C133.862 65.3275 162.321 80.6928 166.12 94.8791C169.838 108.979 148.896 121.899 131.407 136.938C113.855 152.034 99.6762 169.162 81.5075 164.557Z" fill="black" fill-opacity="0.04"/>
</g>
<defs>
<clipPath id="clip0">
<rect width="200" height="200" fill="white"/>
</clipPath>
</defs>
</svg>
